<svg xmlns="http://www.w3.org/2000/svg" viewBox="0 0 64 64">
  <defs>
    <linearGradient id="g" x1="0%" y1="0%" x2="100%" y2="100%">
      <stop offset="0%" stop-color="#1257D1"/>
      <stop offset="100%" stop-color="#4A83E0"/>
    </linearGradient>
  </defs>
  <rect width="64" height="64" rx="14" fill="#0A0A0A"/>
  <!-- Neural network nodes -->
  <circle cx="16" cy="20" r="4" fill="url(#g)" opacity="0.9"/>
  <circle cx="16" cy="44" r="4" fill="url(#g)" opacity="0.9"/>
  <circle cx="32" cy="14" r="4" fill="url(#g)"/>
  <circle cx="32" cy="32" r="5" fill="#CC0000" opacity="0.9"/>
  <circle cx="32" cy="50" r="4" fill="url(#g)"/>
  <circle cx="48" cy="20" r="4" fill="url(#g)" opacity="0.9"/>
  <circle cx="48" cy="44" r="4" fill="url(#g)" opacity="0.9"/>
  <!-- Connections -->
  <line x1="16" y1="20" x2="32" y2="14" stroke="#4A83E0" stroke-width="1.2" opacity="0.5"/>
  <line x1="16" y1="20" x2="32" y2="32" stroke="#4A83E0" stroke-width="1.2" opacity="0.5"/>
  <line x1="16" y1="44" x2="32" y2="32" stroke="#4A83E0" stroke-width="1.2" opacity="0.5"/>
  <line x1="16" y1="44" x2="32" y2="50" stroke="#4A83E0" stroke-width="1.2" opacity="0.5"/>
  <line x1="32" y1="14" x2="48" y2="20" stroke="#4A83E0" stroke-width="1.2" opacity="0.5"/>
  <line x1="32" y1="32" x2="48" y2="20" stroke="#4A83E0" stroke-width="1.2" opacity="0.5"/>
  <line x1="32" y1="32" x2="48" y2="44" stroke="#4A83E0" stroke-width="1.2" opacity="0.5"/>
  <line x1="32" y1="50" x2="48" y2="44" stroke="#4A83E0" stroke-width="1.2" opacity="0.5"/>
</svg>
